<svg width="373" height="390" viewBox="0 0 373 390" fill="none" xmlns="http://www.w3.org/2000/svg">
<path d="M298.379 272.2C313.04 249.016 320.795 221.809 320.665 194.018C320.535 166.227 312.524 139.101 297.646 116.069C282.768 93.0379 261.692 75.1355 237.081 64.6263C212.471 54.1171 185.432 51.4731 159.384 57.0285L162.071 70.7964C185.514 65.7965 209.849 68.1762 231.998 77.6345C254.148 87.0927 273.117 103.205 286.507 123.933C299.897 144.662 307.106 169.075 307.224 194.087C307.341 219.099 300.361 243.586 287.166 264.45L298.379 272.2Z" fill="#00D5D5"/>
<path d="M197.266 54.3503C170.772 52.0603 144.224 58.0347 120.978 71.5181C97.7315 85.0015 78.8321 105.388 66.6694 130.1C54.5067 154.812 49.6269 182.74 52.6471 210.351C55.6674 237.963 66.4519 264.018 83.6371 285.221L93.8924 276.138C78.4258 257.055 68.7197 233.605 66.0015 208.755C63.2833 183.905 67.6751 158.77 78.6215 136.529C89.568 114.288 106.577 95.9401 127.499 83.805C148.42 71.67 172.314 66.293 196.159 68.3541L197.266 54.3503Z" fill="#91E175"/>
<path d="M69.3861 264.387C82.4911 288.567 102.161 308.141 125.907 320.635C149.654 333.129 176.411 337.98 202.796 334.576C229.18 331.173 254.006 319.666 274.135 301.513C294.264 283.359 308.792 259.373 315.88 232.588L302.926 228.841C296.546 252.947 283.471 274.535 265.355 290.873C247.239 307.212 224.895 317.567 201.149 320.631C177.404 323.694 153.322 319.328 131.95 308.083C110.578 296.839 92.8753 279.222 81.0808 257.46L69.3861 264.387Z" fill="#FF6565"/>
<path d="M228.341 328.596C245.108 322.829 260.625 313.666 274.005 301.63C287.385 289.594 298.366 274.922 306.321 258.449C314.277 241.977 319.051 224.028 320.371 205.627C321.691 187.226 319.531 168.733 314.014 151.205L301.246 155.596C306.211 171.372 308.155 188.015 306.967 204.576C305.779 221.137 301.482 237.291 294.322 252.116C287.162 266.941 277.279 280.147 265.238 290.979C253.196 301.811 239.231 310.058 224.14 315.248L228.341 328.596Z" fill="#9281FF"/>
<path id="back-text" d="M267.569 270.244C267.569 200.849 113.229 232.849 105.023 265.878C58.2295 258.849 54.2294 117.849 123.851 105.702C91.2295 165.849 329.229 214.849 243.23 127.849C306.229 134.849 323.229 227.849 267.569 270.244Z" fill="black"/>
<path id="text" d="M76.52 190.24V188.8H84.44C90.272 188.8 93.968 190.144 95.528 192.832C96.128 193.888 96.428 195.172 96.428 196.684C96.428 200.188 94.436 202.54 90.452 203.74C91.964 204.244 92.972 205.288 93.476 206.872L94.556 210.472C94.724 211.072 94.94 211.492 95.204 211.732C95.468 211.972 95.912 212.092 96.536 212.092C97.16 212.092 97.892 211.744 98.732 211.048L99.38 211.912C97.46 213.664 95.42 214.54 93.26 214.54C92.156 214.54 91.268 214.348 90.596 213.964C89.924 213.58 89.444 212.908 89.156 211.948L87.464 206.404C87.248 205.708 86.912 205.228 86.456 204.964C86 204.7 85.208 204.556 84.08 204.532V212.56H86.96V214H76.52V212.56H78.68V190.24H76.52ZM84.44 190.24H84.08V203.092H84.44C86.336 203.092 87.908 202.54 89.156 201.436C90.404 200.308 91.028 198.724 91.028 196.684C91.028 194.644 90.404 193.06 89.156 191.932C87.908 190.804 86.336 190.24 84.44 190.24ZM108.895 205.684C110.455 205.54 111.655 204.952 112.495 203.92C113.359 202.864 113.791 201.808 113.791 200.752C113.791 199.672 113.551 198.844 113.071 198.268C112.615 197.692 111.907 197.404 110.947 197.404C110.011 197.404 109.111 198.076 108.247 199.42C107.383 200.764 106.951 202.564 106.951 204.82C106.951 207.076 107.359 208.888 108.175 210.256C108.991 211.624 110.155 212.308 111.667 212.308C113.971 212.308 115.927 211.408 117.535 209.608L118.543 210.256C117.727 211.552 116.647 212.596 115.303 213.388C113.959 214.156 112.447 214.54 110.767 214.54C107.911 214.54 105.631 213.604 103.927 211.732C102.223 209.836 101.371 207.556 101.371 204.892C101.371 202.228 102.271 199.996 104.071 198.196C105.895 196.372 108.415 195.46 111.631 195.46C113.743 195.46 115.399 195.952 116.599 196.936C117.799 197.92 118.399 199.168 118.399 200.68C118.399 202.192 117.727 203.596 116.383 204.892C115.063 206.164 113.311 206.8 111.127 206.8C110.383 206.8 109.663 206.716 108.967 206.548L108.895 205.684ZM126.812 198.952C126.236 198.064 125.948 197.272 125.948 196.576C125.948 195.88 126.212 195.268 126.74 194.74C127.292 194.188 127.952 193.912 128.72 193.912C129.488 193.912 130.136 194.188 130.664 194.74C131.216 195.268 131.492 195.904 131.492 196.648C131.492 197.392 131.12 198.184 130.376 199.024C132.344 200.464 133.856 201.88 134.912 203.272C135.968 204.64 136.496 206.236 136.496 208.06C136.496 209.86 135.812 211.396 134.444 212.668C133.076 213.916 131.132 214.54 128.612 214.54C127.46 214.54 126.296 214.288 125.12 213.784C123.968 213.28 123.092 212.656 122.492 211.912L123.32 211.048C124.376 211.888 125.516 212.308 126.74 212.308C127.964 212.308 128.96 211.984 129.728 211.336C130.52 210.664 130.916 209.632 130.916 208.24C130.916 206.032 130.1 203.728 128.468 201.328L123.032 208.132L122.132 207.34C123.956 204.388 125.516 201.592 126.812 198.952ZM138.967 197.98V196.504H141.919V191.32H147.319V196.504H151.387V197.98H147.319V210.004C147.319 210.652 147.475 211.168 147.787 211.552C148.099 211.912 148.579 212.092 149.227 212.092C149.875 212.092 150.619 211.744 151.459 211.048L152.107 211.912C150.187 213.664 148.267 214.54 146.347 214.54C143.395 214.54 141.919 212.776 141.919 209.248V197.98H138.967ZM174.312 196V210.004C174.312 210.652 174.468 211.168 174.78 211.552C175.092 211.912 175.572 212.092 176.22 212.092C176.868 212.092 177.612 211.744 178.452 211.048L179.1 211.912C177.18 213.664 175.26 214.54 173.34 214.54C171.06 214.54 169.656 213.472 169.128 211.336C167.88 213.472 166.044 214.54 163.62 214.54C160.86 214.54 158.76 213.652 157.32 211.876C155.88 210.076 155.16 207.796 155.16 205.036C155.16 202.252 155.928 199.96 157.464 198.16C159.024 196.36 161.196 195.46 163.98 195.46C166.116 195.46 167.76 196.312 168.912 198.016V196H174.312ZM161.748 199.528C161.076 200.872 160.74 202.696 160.74 205C160.74 207.304 161.076 209.128 161.748 210.472C162.42 211.816 163.44 212.488 164.808 212.488C166.2 212.488 167.256 211.816 167.976 210.472C168.72 209.104 169.092 207.28 169.092 205C169.092 202.72 168.72 200.908 167.976 199.564C167.256 198.196 166.2 197.512 164.808 197.512C163.44 197.512 162.42 198.184 161.748 199.528ZM188.243 197.656V210.004C188.243 210.748 188.471 211.324 188.927 211.732C189.383 212.14 190.019 212.344 190.835 212.344C191.651 212.344 192.443 212.008 193.211 211.336C193.979 210.664 194.363 209.788 194.363 208.708V196H199.763V210.004C199.763 210.652 199.919 211.168 200.231 211.552C200.543 211.912 201.023 212.092 201.671 212.092C202.319 212.092 203.063 211.744 203.903 211.048L204.551 211.912C202.631 213.664 200.675 214.54 198.683 214.54C196.691 214.54 195.371 213.652 194.723 211.876C193.787 212.86 192.815 213.556 191.807 213.964C190.823 214.348 189.551 214.54 187.991 214.54C186.455 214.54 185.207 214.072 184.247 213.136C183.311 212.176 182.843 210.88 182.843 209.248V197.188C181.523 197.524 180.515 198.112 179.819 198.952L178.847 197.836C179.543 197.116 180.419 196.54 181.475 196.108C182.555 195.676 183.611 195.46 184.643 195.46C185.699 195.46 186.563 195.676 187.235 196.108C187.907 196.516 188.243 197.032 188.243 197.656ZM217.98 195.46C218.7 195.46 219.06 196.144 219.06 197.512V210.004C219.06 210.652 219.216 211.168 219.528 211.552C219.84 211.912 220.32 212.092 220.968 212.092C221.616 212.092 222.36 211.744 223.2 211.048L223.848 211.912C221.928 213.664 220.008 214.54 218.088 214.54C215.136 214.54 213.66 212.776 213.66 209.248V199.132C212.532 199.588 211.164 199.9 209.556 200.068C209.364 202.276 208.728 204.484 207.648 206.692L206.172 206.26C206.844 204.556 207.204 202.528 207.252 200.176C206.34 200.176 205.596 199.912 205.02 199.384C204.468 198.856 204.192 198.208 204.192 197.44C204.192 196.648 204.456 195.988 204.984 195.46C205.536 194.908 206.196 194.632 206.964 194.632C207.756 194.632 208.416 194.908 208.944 195.46C209.472 196.012 209.736 196.72 209.736 197.584H210.42C212.316 197.584 214.332 197.056 216.468 196C217.164 195.64 217.668 195.46 217.98 195.46ZM244.625 196V210.004C244.625 210.652 244.781 211.168 245.093 211.552C245.405 211.912 245.885 212.092 246.533 212.092C247.181 212.092 247.925 211.744 248.765 211.048L249.413 211.912C247.493 213.664 245.573 214.54 243.653 214.54C241.373 214.54 239.969 213.472 239.441 211.336C238.193 213.472 236.357 214.54 233.933 214.54C231.173 214.54 229.073 213.652 227.633 211.876C226.193 210.076 225.473 207.796 225.473 205.036C225.473 202.252 226.241 199.96 227.777 198.16C229.337 196.36 231.509 195.46 234.293 195.46C236.429 195.46 238.073 196.312 239.225 198.016V196H244.625ZM232.061 199.528C231.389 200.872 231.053 202.696 231.053 205C231.053 207.304 231.389 209.128 232.061 210.472C232.733 211.816 233.753 212.488 235.121 212.488C236.513 212.488 237.569 211.816 238.289 210.472C239.033 209.104 239.405 207.28 239.405 205C239.405 202.72 239.033 200.908 238.289 199.564C237.569 198.196 236.513 197.512 235.121 197.512C233.753 197.512 232.733 198.184 232.061 199.528ZM253.155 196C255.123 196 256.899 196.6 258.483 197.8C259.395 196.936 260.331 196.336 261.291 196C262.251 195.64 263.475 195.46 264.963 195.46C266.475 195.46 267.699 195.94 268.635 196.9C269.595 197.836 270.075 199.12 270.075 200.752V210.004C270.075 210.652 270.231 211.168 270.543 211.552C270.855 211.912 271.335 212.092 271.983 212.092C272.631 212.092 273.375 211.744 274.215 211.048L274.863 211.912C272.943 213.664 271.023 214.54 269.103 214.54C266.151 214.54 264.675 212.776 264.675 209.248V199.996C264.675 199.252 264.447 198.676 263.991 198.268C263.535 197.86 262.899 197.656 262.083 197.656C261.291 197.656 260.499 197.98 259.707 198.628C258.939 199.276 258.555 200.116 258.555 201.148V214H253.155V197.44C252.075 197.44 251.115 197.62 250.275 197.98L249.771 196.648C250.803 196.216 251.931 196 253.155 196ZM275.549 197.98V196.504H278.501V191.32H283.901V196.504H287.969V197.98H283.901V210.004C283.901 210.652 284.057 211.168 284.369 211.552C284.681 211.912 285.161 212.092 285.809 212.092C286.457 212.092 287.201 211.744 288.041 211.048L288.689 211.912C286.769 213.664 284.849 214.54 282.929 214.54C279.977 214.54 278.501 212.776 278.501 209.248V197.98H275.549Z" fill="white"/>
</svg>
